<svg xmlns="http://www.w3.org/2000/svg" viewBox="156 -206 512 512"><path d="M206.3 33.3h-33.4c-9.2 0-16.7 7.5-16.7 16.7s7.5 16.7 16.7 16.7h33.4c9.2 0 16.7-7.5 16.7-16.7s-7.5-16.7-16.7-16.7zM651.5 33.3h-33.4c-9.2 0-16.7 7.5-16.7 16.7s7.5 16.7 16.7 16.7h33.4c9.2 0 16.7-7.5 16.7-16.7s-7.5-16.7-16.7-16.7zM412.2 239.2c-9.2 0-16.7 7.5-16.7 16.7v33.4c0 9.2 7.5 16.7 16.7 16.7s16.7-7.5 16.7-16.7v-33.4c0-9.2-7.5-16.7-16.7-16.7zM412.2-206c-9.2 0-16.7 7.5-16.7 16.7v33.4c0 9.2 7.5 16.7 16.7 16.7s16.7-7.5 16.7-16.7v-33.4c0-9.2-7.5-16.7-16.7-16.7zM546.3 248.9L529.6 220c-4.6-8-14.8-10.7-22.8-6.1s-10.7 14.8-6.1 22.8l16.7 28.9c4.6 8 14.8 10.7 22.8 6.1s10.7-14.8 6.1-22.8zM323.7-136.7L307-165.6c-4.6-8-14.8-10.7-22.8-6.1s-10.7 14.8-6.1 22.8l16.7 28.9c4.6 8 14.8 10.7 22.8 6.1s10.7-14.8 6.1-22.8zM627.8 155.2l-28.9-16.7c-8-4.6-18.2-1.9-22.8 6.1s-1.9 18.2 6.1 22.8l28.9 16.7c8 4.6 18.2 1.9 22.8-6.1 4.6-8 1.9-18.2-6.1-22.8zM242.2-67.4l-28.9-16.7c-8-4.6-18.2-1.9-22.8 6.1s-1.9 18.2 6.1 22.8l28.9 16.7c8 4.6 18.2 1.9 22.8-6.1 4.6-8 1.9-18.2-6.1-22.8zM633.9-78c-4.6-8-14.8-10.7-22.8-6.1l-28.9 16.7c-8 4.6-10.7 14.8-6.1 22.8s14.8 10.7 22.8 6.1l28.9-16.7c8-4.6 10.7-14.8 6.1-22.8zM248.3 144.6c-4.6-8-14.8-10.7-22.8-6.1l-28.9 16.7c-8 4.6-10.7 14.8-6.1 22.8s14.8 10.7 22.8 6.1l28.9-16.7c8-4.6 10.7-14.8 6.1-22.8zM540.2-171.7c-8-4.6-18.2-1.9-22.8 6.1l-16.7 28.9c-4.6 8-1.9 18.2 6.1 22.8 8 4.6 18.2 1.9 22.8-6.1l16.7-28.9c4.6-8 1.9-18.2-6.1-22.8zM317.6 213.9c-8-4.6-18.2-1.9-22.8 6.1l-16.7 28.9c-4.6 8-1.9 18.2 6.1 22.8 8 4.6 18.2 1.9 22.8-6.1l16.7-28.9c4.6-8 1.9-18.2-6.1-22.8zM412.2-105.8c-85.9 0-155.8 69.9-155.8 155.8s69.9 155.8 155.8 155.8S568 135.9 568 50s-69.9-155.8-155.8-155.8zm0 278.2c-67.5 0-122.4-54.9-122.4-122.4S344.7-72.4 412.2-72.4 534.6-17.5 534.6 50s-54.9 122.4-122.4 122.4z"/><path d="M479.6 115.9c35.7-46 27.3-112.5-18.8-148-8.7-6.6-21.1-5.1-27.7 3.6-6.6 8.7-5.1 21.1 3.6 27.7 28.8 22.3 34 63.8 11.7 92.6-6.6 8.7-5.1 21.1 3.6 27.7 8.5 6.6 21 5.1 27.6-3.6zM335.5 23.2c-14.2 15.7-12.9 40 2.8 54.2 3 2.7 7.5 2.4 10.2-.5 2.7-3 2.4-7.5-.5-10.2-9.8-8.9-10.6-24-1.8-33.9 2.7-3 2.4-7.5-.5-10.2-3-2.6-7.6-2.4-10.2.6z"/></svg>