<svg id="Layer_1" xmlns="http://www.w3.org/2000/svg" viewBox="156 -206 512 512"><style>.st0{stroke:#000000;stroke-width:13;stroke-miterlimit:10;}</style><path class="st0" d="M367.3-49.8c-45.3 0-85.5 28.9-100 71.8-1.3 3.8-4.7 6.6-8.7 7-40.3 4.4-70.7 38.3-70.7 78.9 0 43.8 35.6 79.4 79.4 79.4h289.4c43.8 0 79.4-35.6 79.4-79.4 0-29.4-16.2-56.3-42.2-70.2-3.7-2-5.9-6-5.5-10.2.3-3.1.5-6.3.5-9.5 0-58.2-47.4-105.6-105.6-105.6-31 0-60.4 13.6-80.5 37.4-2.5 3-6.6 4.3-10.4 3.4-8.6-1.9-17-3-25.1-3zm189.4 258.1H267.3C212 208.3 167 163.3 167 108c0-49.1 35.2-90.4 82.8-98.7 19-48 65.4-79.9 117.5-79.9 7.8 0 15.7.8 23.8 2.4 23.9-25.5 57.2-40 92.2-40 69.7 0 126.4 56.7 126.4 126.4 0 1.6 0 3.1-.1 4.7C639 41.1 657 73.1 657 108c0 55.3-45 100.3-100.3 100.3z"/><path class="st0" d="M367.3-49.8c-45.3 0-85.5 28.9-100 71.8-1.3 3.8-4.7 6.6-8.7 7-40.3 4.4-70.7 38.3-70.7 78.9 0 43.8 35.6 79.4 79.4 79.4h289.4c43.8 0 79.4-35.6 79.4-79.4 0-29.4-16.2-56.3-42.2-70.2-3.7-2-5.9-6-5.5-10.2.3-3.1.5-6.3.5-9.5 0-58.2-47.4-105.6-105.6-105.6-31 0-60.4 13.6-80.5 37.4-2.5 3-6.6 4.3-10.4 3.4-8.6-1.9-17-3-25.1-3zm189.4 258.1H267.3C212 208.3 167 163.3 167 108c0-49.1 35.2-90.4 82.8-98.7 19-48 65.4-79.9 117.5-79.9 7.8 0 15.7.8 23.8 2.4 23.9-25.5 57.2-40 92.2-40 69.7 0 126.4 56.7 126.4 126.4 0 1.6 0 3.1-.1 4.7C639 41.1 657 73.1 657 108c0 55.3-45 100.3-100.3 100.3z"/><g><path class="st0" d="M366.3-50.8c-45.3 0-85.5 28.9-100 71.8-1.3 3.8-4.7 6.6-8.7 7-40.3 4.4-70.7 38.3-70.7 78.9 0 43.8 35.6 79.4 79.4 79.4h289.4c43.8 0 79.4-35.6 79.4-79.4 0-29.4-16.2-56.3-42.2-70.2-3.7-2-5.9-6-5.5-10.2.3-3.1.5-6.3.5-9.5 0-58.2-47.4-105.6-105.6-105.6-31 0-60.4 13.6-80.5 37.4-2.5 3-6.6 4.3-10.4 3.4-8.6-1.9-17-3-25.1-3zm189.4 258.1H266.3C211 207.3 166 162.3 166 107c0-49.1 35.2-90.4 82.8-98.7 19-48 65.4-79.9 117.5-79.9 7.8 0 15.7.8 23.8 2.4 23.9-25.5 57.2-40 92.2-40 69.7 0 126.4 56.7 126.4 126.4 0 1.6 0 3.1-.1 4.7C638 40.1 656 72.1 656 107c0 55.3-45 100.3-100.3 100.3z"/><path class="st0" d="M366.3-50.8c-45.3 0-85.5 28.9-100 71.8-1.3 3.8-4.7 6.6-8.7 7-40.3 4.4-70.7 38.3-70.7 78.9 0 43.8 35.6 79.4 79.4 79.4h289.4c43.8 0 79.4-35.6 79.4-79.4 0-29.4-16.2-56.3-42.2-70.2-3.7-2-5.9-6-5.5-10.2.3-3.1.5-6.3.5-9.5 0-58.2-47.4-105.6-105.6-105.6-31 0-60.4 13.6-80.5 37.4-2.5 3-6.6 4.3-10.4 3.4-8.6-1.9-17-3-25.1-3zm189.4 258.1H266.3C211 207.3 166 162.3 166 107c0-49.1 35.2-90.4 82.8-98.7 19-48 65.4-79.9 117.5-79.9 7.8 0 15.7.8 23.8 2.4 23.9-25.5 57.2-40 92.2-40 69.7 0 126.4 56.7 126.4 126.4 0 1.6 0 3.1-.1 4.7C638 40.1 656 72.1 656 107c0 55.3-45 100.3-100.3 100.3z"/></g></svg>