<svg id="Layer_1" xmlns="http://www.w3.org/2000/svg" viewBox="156 -206 512 512"><style>.st0{stroke:#000000;stroke-width:25;stroke-miterlimit:10;} .st1{fill:#FFFFFF;stroke:#000000;stroke-width:25;stroke-miterlimit:10;}</style><path d="M206.3 33.3h-33.4c-9.2 0-16.7 7.5-16.7 16.7s7.5 16.7 16.7 16.7h33.4c9.2 0 16.7-7.5 16.7-16.7s-7.5-16.7-16.7-16.7zM651.5 33.3h-33.4c-9.2 0-16.7 7.5-16.7 16.7s7.5 16.7 16.7 16.7h33.4c9.2 0 16.7-7.5 16.7-16.7s-7.5-16.7-16.7-16.7zM412.2 239.2c-9.2 0-16.7 7.5-16.7 16.7v33.4c0 9.2 7.5 16.7 16.7 16.7s16.7-7.5 16.7-16.7v-33.4c0-9.2-7.5-16.7-16.7-16.7zM412.2-206c-9.2 0-16.7 7.5-16.7 16.7v33.4c0 9.2 7.5 16.7 16.7 16.7s16.7-7.5 16.7-16.7v-33.4c0-9.2-7.5-16.7-16.7-16.7zM546.3 248.9L529.6 220c-4.6-8-14.8-10.7-22.8-6.1s-10.7 14.8-6.1 22.8l16.7 28.9c4.6 8 14.8 10.7 22.8 6.1s10.7-14.8 6.1-22.8zM323.7-136.7L307-165.6c-4.6-8-14.8-10.7-22.8-6.1s-10.7 14.8-6.1 22.8l16.7 28.9c4.6 8 14.8 10.7 22.8 6.1s10.7-14.8 6.1-22.8zM627.8 155.2l-28.9-16.7c-8-4.6-18.2-1.9-22.8 6.1s-1.9 18.2 6.1 22.8l28.9 16.7c8 4.6 18.2 1.9 22.8-6.1 4.6-8 1.9-18.2-6.1-22.8zM242.2-67.4l-28.9-16.7c-8-4.6-18.2-1.9-22.8 6.1s-1.9 18.2 6.1 22.8l28.9 16.7c8 4.6 18.2 1.9 22.8-6.1 4.6-8 1.9-18.2-6.1-22.8zM633.9-78c-4.6-8-14.8-10.7-22.8-6.1l-28.9 16.7c-8 4.6-10.7 14.8-6.1 22.8s14.8 10.7 22.8 6.1l28.9-16.7c8-4.6 10.7-14.8 6.1-22.8zM248.3 144.6c-4.6-8-14.8-10.7-22.8-6.1l-28.9 16.7c-8 4.6-10.7 14.8-6.1 22.8s14.8 10.7 22.8 6.1l28.9-16.7c8-4.6 10.7-14.8 6.1-22.8zM540.2-171.7c-8-4.6-18.2-1.9-22.8 6.1l-16.7 28.9c-4.6 8-1.9 18.2 6.1 22.8 8 4.6 18.2 1.9 22.8-6.1l16.7-28.9c4.6-8 1.9-18.2-6.1-22.8zM317.6 213.9c-8-4.6-18.2-1.9-22.8 6.1l-16.7 28.9c-4.6 8-1.9 18.2 6.1 22.8 8 4.6 18.2 1.9 22.8-6.1l16.7-28.9c4.6-8 1.9-18.2-6.1-22.8zM412.2-105.8c-85.9 0-155.8 69.9-155.8 155.8s69.9 155.8 155.8 155.8S568 135.9 568 50s-69.9-155.8-155.8-155.8zm0 278.2c-67.5 0-122.4-54.9-122.4-122.4S344.7-72.4 412.2-72.4 534.6-17.5 534.6 50s-54.9 122.4-122.4 122.4z"/><path d="M513.1 56C510.9-2.2 461.6-47.7 403.4-45.2c-10.9.5-19.4 9.7-18.9 20.6.5 10.9 9.7 19.4 20.6 18.9 36.4-1.5 67.1 26.9 68.6 63.3.5 10.9 9.7 19.4 20.6 18.9 10.8-.4 19.3-9.6 18.8-20.5z"/><path class="st0" d="M305.1 121.8c-30.2 0-57 19.3-66.6 47.8-.9 2.5-3.1 4.4-5.8 4.7-26.8 2.9-47.1 25.5-47.1 52.6 0 29.2 23.7 52.9 52.9 52.9h192.8c29.2 0 52.9-23.7 52.9-52.9 0-19.6-10.8-37.5-28.1-46.8-2.5-1.3-3.9-4-3.7-6.8.2-2.1.3-4.2.3-6.3 0-38.8-31.6-70.3-70.3-70.3-20.7 0-40.2 9.1-53.6 24.9-1.7 2-4.4 2.9-6.9 2.3-5.8-1.4-11.4-2.1-16.8-2.1zm126.2 171.9H238.5c-36.8 0-66.8-30-66.8-66.8 0-32.7 23.4-60.2 55.2-65.8 12.7-32 43.6-53.2 78.3-53.2 5.2 0 10.5.5 15.9 1.6 15.9-17 38.1-26.6 61.4-26.6 46.4 0 84.2 37.8 84.2 84.2 0 1.1 0 2.1-.1 3.1 19.6 12.1 31.6 33.4 31.6 56.7-.1 36.8-30.1 66.8-66.9 66.8z"/><path class="st1" d="M431.3 293.7H238.5c-36.8 0-66.8-30-66.8-66.8 0-32.7 23.4-60.2 55.2-65.8 12.7-32 43.6-53.2 78.3-53.2 5.2 0 10.5.5 15.9 1.6 15.9-17 38.1-26.6 61.4-26.6 46.4 0 84.2 37.8 84.2 84.2 0 1.1 0 2.1-.1 3.1 19.6 12.1 31.6 33.4 31.6 56.7-.1 36.8-30.1 66.8-66.9 66.8z"/></svg>