<svg xmlns="http://www.w3.org/2000/svg" viewBox="60 -110 320 320"><path d="M66.4 78.2l10.3 10.3 31.2-31.2h16.8L93.3 88.6l10.3 10.3 41.7-41.6h57.1L147 112.7H97.8v14.5h34.7l-29.2 29.2 10.3 10.3 29.2-29.2v34.7h14.5V123l55.4-55.4v57.1l-41.6 41.7 10.3 10.3 31.3-31.4v16.8l-31.2 31.2 10.3 10.3 20.9-20.9V210h14.6v-27.3l20.9 20.9 10.3-10.3-31.2-31.2v-16.8l31.3 31.4 10.3-10.3-41.6-41.7V67.6l55.4 55.4v49.2h14.5v-34.7l29.2 29.2 10.3-10.3-29.2-29.2h34.7v-14.5H293l-55.4-55.4h57.1l41.7 41.6 10.3-10.3-31.4-31.3h16.8l31.2 31.2 10.3-10.3-20.9-20.9H380V42.7h-27.3l20.9-20.9-10.3-10.3-31.2 31.2h-16.8l31.4-31.4-10.3-10.2-41.7 41.6h-57.1L293-12.7h49.2v-14.5h-34.7L331-50.7 320.7-61l-23.5 23.5v-34.7h-14.5V-23l-55.4 55.4v-57.1l41.6-41.7-10.3-10.3-31.3 31.4v-16.8l31.2-31.2-10.3-10.3-20.9 20.9V-110h-14.6v27.3l-20.9-20.9-10.3 10.3 31.2 31.2v16.8l-31.3-31.4-10.3 10.3 41.6 41.7v57.1L157.3-23v-49.2h-14.5v34.7L119.3-61 109-50.7l23.5 23.5H97.8v14.5H147l55.4 55.4h-57.1L103.6 1.1 93.3 11.3l31.4 31.4h-16.8L76.7 11.5 66.4 21.8l20.9 20.9H60v14.6h27.3"/><path d="M152.5 76.6h39v13.3h-39z"/><path d="M178.2 76.6h13.3v39h-13.3zM178.2-15.9h13.3v39h-13.3z"/><path d="M152.5 9.9h39v13.3h-39z"/><g><path d="M246.1 77.6h13.3v39h-13.3z"/><path d="M246.1 77.6h39v13.3h-39z"/></g><g><path d="M246.1 11.9h39v13.3h-39z"/><path d="M246.1-13.9h13.3v39h-13.3z"/></g></svg>