<svg xmlns="http://www.w3.org/2000/svg" viewBox="1 -51.7 202.7 202.7"><path d="M200.9 68.1c-2.4-1.9-5.7-2.1-8.4-.6-12.6 7.2-25.9 10.9-39.5 10.9-43.8 0-79.4-35.6-79.4-79.4 0-13.7 3.7-27 10.9-39.4 1.5-2.6 1.3-6-.6-8.4-1.9-2.4-5-3.4-8-2.6-21.2 6.1-40.2 19-53.6 36.4C8.4 3.1 1 24.7 1 47.5 1 104.6 47.4 151 104.4 151c22.9 0 44.5-7.4 62.6-21.3 17.4-13.4 30.4-32.5 36.5-53.6.8-2.9-.2-6.1-2.6-8zM104.4 136C55.7 136 16 96.3 16 47.5c0-32.9 18.8-62.8 47.4-77.9C60.2-20.8 58.6-11 58.6-1c0 52.1 42.4 94.4 94.4 94.4 10 0 19.8-1.6 29.3-4.9-15 28.7-44.9 47.5-77.9 47.5z"/><path d="M124.8-13.4l-5.8-1.2 5.8-1.2 15.7 1.2-15.7 1.2zm-8.6-3l1.8-2.7 6.6-5.7-5.7 6.6-2.7 1.8zm-1.8 5.3c-1.2-2.7-.7-2.2-3.5-3.5 2.7-1.2 2.2-.7 3.5-3.5 1.2 2.7.7 2.2 3.5 3.5-2.8 1.3-2.3.8-3.5 3.5zM113.2-25l1.2-15.7 1.2 15.7-1.2 5.8-1.2-5.8zm-9 .3l6.6 5.7 1.8 2.7-2.7-1.8-5.7-6.6zm-.3 11.3l-15.7-1.2 15.7-1.2 5.8 1.2-5.8 1.2zm8.7.7l-1.8 2.7-6.6 5.7 5.7-6.6 2.7-1.8zm2.9 8.6l-1.2 15.7-1.2-15.7 1.2-5.8 1.2 5.8zm9-.3L118-10l-1.8-2.7 2.7 1.8 5.6 6.5zM172.9 38l-9-1.8 9-1.8 24.4 1.8-24.4 1.8zm-13.4-4.6l2.8-4.2 10.2-8.8-8.8 10.2-4.2 2.8zm-2.8 8.2c-1.9-4.2-1.2-3.4-5.4-5.4 4.2-1.9 3.4-1.2 5.4-5.4 1.9 4.2 1.2 3.4 5.4 5.4-4.2 1.9-3.4 1.1-5.4 5.4zM154.9 20l1.8-24.4 1.8 24.4-1.8 9-1.8-9zm-14 .4l10.2 8.8 2.8 4.2-4.2-2.8-8.8-10.2zm-.4 17.6l-24.4-1.8 24.4-1.8 9 1.8-9 1.8zm13.4 1l-2.8 4.2-10.2 8.8 8.8-10.2 4.2-2.8zm4.7 13.4l-1.8 24.4-1.8-24.4 1.8-9 1.8 9zm13.9-.4l-10.2-8.8-2.8-4.2 4.2 2.8 8.8 10.2z"/></svg>