<svg id="Capa_1" xmlns="http://www.w3.org/2000/svg" viewBox="1 -51.7 202.7 202.7"><style>.st0{stroke:#000000;stroke-width:13;stroke-miterlimit:10;} .st1{fill:#FFFFFF;stroke:#000000;stroke-width:13;stroke-miterlimit:10;}</style><path d="M200.9 68.1c-2.4-1.9-5.7-2.1-8.4-.6-12.6 7.2-25.9 10.9-39.5 10.9-43.8 0-79.4-35.6-79.4-79.4 0-13.7 3.7-27 10.9-39.4 1.5-2.6 1.3-6-.6-8.4-1.9-2.4-5-3.4-8-2.6-21.2 6.1-40.2 19-53.6 36.4C8.4 3.1 1 24.7 1 47.5 1 104.6 47.4 151 104.4 151c22.9 0 44.5-7.4 62.6-21.3 17.4-13.4 30.4-32.5 36.5-53.6.8-2.9-.2-6.1-2.6-8zM104.4 136C55.7 136 16 96.3 16 47.5c0-32.9 18.8-62.8 47.4-77.9C60.2-20.8 58.6-11 58.6-1c0 52.1 42.4 94.4 94.4 94.4 10 0 19.8-1.6 29.3-4.9-15 28.7-44.9 47.5-77.9 47.5z"/><path d="M111.1-19.3l-4.9-1 4.9-1 13.2 1-13.2 1zm-7.2-2.5l1.5-2.3 5.5-4.7-4.7 5.5-2.3 1.5zm-1.5 4.5c-1-2.3-.6-1.9-2.9-2.9 2.3-1 1.9-.6 2.9-2.9 1 2.3.6 1.9 2.9 2.9-2.3 1-1.9.6-2.9 2.9zm-1-11.7l1-13.2 1 13.2-1 4.9-1-4.9zm-7.6.2l5.5 4.7 1.5 2.3-2.3-1.5-4.7-5.5zm-.2 9.5l-13.2-1 13.2-1 4.9 1-4.9 1zm7.3.6l-1.5 2.3-5.5 4.7 4.7-5.5 2.3-1.5zm2.5 7.2l-1 13.2-1-13.2 1-4.9 1 4.9zm7.5-.2l-5.5-4.7-1.5-2.3 2.3 1.5 4.7 5.5zM179.5 6.5l-8-1.6 8-1.6 21.7 1.6-21.7 1.6zm-11.9-4.2l2.5-3.8 9.1-7.8-7.8 9.1-3.8 2.5zm-2.5 7.3c-1.7-3.8-1-3.1-4.8-4.8 3.8-1.7 3.1-1 4.8-4.8 1.7 3.8 1 3.1 4.8 4.8-3.8 1.8-3.1 1.1-4.8 4.8zm-1.6-19.2l1.6-21.7 1.6 21.7-1.6 8-1.6-8zm-12.5.4l9.1 7.8 2.5 3.8-3.8-2.5-7.8-9.1zm-.3 15.7L129 4.8l21.7-1.6 8 1.6-8 1.7zm11.9.8l-2.5 3.8-9.1 7.8 7.8-9.1 3.8-2.5zm4.1 12L165.1 41l-1.6-21.7 1.6-8 1.6 8zm12.5-.4l-9.1-7.8-2.5-3.8 3.8 2.5 7.8 9.1z"/><path class="st0" d="M84.6 64.6c-14 0-26.5 9-31 22.3-.4 1.2-1.5 2-2.7 2.2C38.5 90.4 29 100.9 29 113.5c0 13.6 11 24.6 24.6 24.6h89.7c13.6 0 24.6-11 24.6-24.6 0-9.1-5-17.4-13.1-21.8-1.1-.6-1.8-1.9-1.7-3.2.1-1 .2-2 .2-2.9 0-18-14.7-32.7-32.7-32.7-9.6 0-18.7 4.2-24.9 11.6-.8.9-2 1.3-3.2 1.1-2.8-.6-5.4-1-7.9-1zm58.7 80H53.6c-17.1 0-31.1-13.9-31.1-31.1 0-15.2 10.9-28 25.7-30.6C54.1 68 68.5 58.1 84.6 58.1c2.4 0 4.9.2 7.4.7 7.4-7.9 17.7-12.4 28.6-12.4 21.6 0 39.2 17.6 39.2 39.2v1.5c9.1 5.6 14.7 15.6 14.7 26.4-.1 17.2-14 31.1-31.2 31.1z"/><path class="st1" d="M143.3 144.6H53.6c-17.1 0-31.1-13.9-31.1-31.1 0-15.2 10.9-28 25.7-30.6C54.1 68 68.5 58.1 84.6 58.1c2.4 0 4.9.2 7.4.7 7.4-7.9 17.7-12.4 28.6-12.4 21.6 0 39.2 17.6 39.2 39.2v1.5c9.1 5.6 14.7 15.6 14.7 26.4-.1 17.2-14 31.1-31.2 31.1z"/></svg>