<svg xmlns="http://www.w3.org/2000/svg" viewBox="-61 12 77 77"><path d="M-22.5 89C-38 89-50.7 76.4-50.7 60.8c0-14.5 23.2-44.3 25.8-47.7.6-.7 1.4-1.1 2.4-1.1s1.8.4 2.4 1.1c2.6 3.3 25.8 33.1 25.8 47.7C5.7 76.4-7 89-22.5 89zm0-69.1c-7.8 10.4-22.2 31.4-22.2 40.9 0 12.2 10 22.2 22.2 22.2S-.3 73.1-.3 60.8c0-9.5-14.4-30.5-22.2-40.9z"/><path d="M-39.3 61.7c0-1.7 1.3-3 3-3s3 1.3 3 3c0 5.6 4.6 10.2 10.2 10.2 1.7 0 3 1.3 3 3s-1.3 3-3 3c-9 0-16.2-7.3-16.2-16.2zM-8.3 56.6c-1.1.6-2.4.3-3.1-.7-1.3-2.8-2.9-5.8-4.7-8.9-2.5-4.2-5-7.8-7.4-11-.1-.1-.5-.8-.3-1.7.1-.6.5-1.1 1-1.4 1.1-.6 2.4-.3 3.1.7 2.3 3 4.8 6.5 7.2 10.5 2 3.3 3.6 6.5 5 9.4.1.1.5.8.3 1.7-.2.5-.6 1-1.1 1.4z"/></svg>