<svg xmlns="http://www.w3.org/2000/svg" viewBox="60 -110 320 320"><path d="M186.6 128l6.4 6.3 19.1-19.1h10.3l-19.2 19.2 6.3 6.4 25.6-25.6h35.1l-34 34h-30.3v8.9h21.3l-17.9 18 6.3 6.3 17.9-17.9v21.3h9v-30.3l34-34v35.1l-25.6 25.6 6.3 6.3 19.3-19.3v10.4l-19.1 19.1 6.3 6.3 12.8-12.8V209h9v-16.8l12.8 12.8 6.3-6.3-19.1-19.1v-10.4l19.2 19.3 6.4-6.3-25.6-25.6v-35.1l34 34v30.3h8.9v-21.3l18 17.9 6.3-6.3-17.9-18h21.3v-8.9h-30.3l-34-34h35.1l25.6 25.6 6.3-6.4-19.3-19.2h10.4l19.1 19.1 6.3-6.3-12.8-12.8h16.8v-9h-16.8l12.8-12.8-6.3-6.3-19.1 19.1h-10.4L358.8 87l-6.3-6.4-25.6 25.6h-35.1l34-34h30.3v-8.9h-21.3l14.4-14.4-6.4-6.4-14.4 14.4V35.6h-8.9v30.3l-34 34V64.8l25.6-25.6-6.4-6.3-19.2 19.3V41.8l19.1-19.1-6.3-6.3-12.8 12.8V12.4h-9v16.8l-12.8-12.8-6.3 6.3 19.1 19.1v10.4l-19.3-19.3-6.3 6.3 25.6 25.6v35.1l-34-34V35.6h-9v21.3l-14.4-14.4-6.3 6.4 14.4 14.4h-21.3v8.9h30.3l34 34h-35.1l-25.6-25.6-6.3 6.4 19.2 19.2h-10.3L193 87.1l-6.4 6.3 12.9 12.8h-16.8v9h16.8"/><path d="M239.5 127.1h24v8.2h-24z"/><path d="M255.3 127.1h8.2v24h-8.2zM255.3 70.2h8.2v24h-8.2z"/><path d="M239.5 86h24v8.2h-24z"/><g><path d="M297.1 127.7h8.2v24h-8.2z"/><path d="M297.1 127.7h24v8.2h-24z"/></g><g><path d="M297.1 87.3h24v8.2h-24z"/><path d="M297.1 71.5h8.2v24h-8.2z"/></g><g><path d="M135.2 92.3c-40.8 0-74.1-33.2-74.1-74.1C61.1-20 122-98.3 129-107.1c1.5-1.9 3.8-3 6.2-3s4.7 1.1 6.2 3c7 8.8 67.9 87.1 67.9 125.3 0 40.9-33.2 74.1-74.1 74.1zm0-181.5C114.6-61.8 76.9-6.7 76.9 18.3c0 32.2 26.2 58.3 58.3 58.3s58.3-26.2 58.3-58.3c0-25-37.7-80.1-58.3-107.5z"/><path d="M91 20.6c0-4.4 3.5-7.9 7.9-7.9s7.9 3.5 7.9 7.9c0 14.8 12 26.8 26.8 26.8 4.4 0 7.9 3.5 7.9 7.9s-3.5 7.9-7.9 7.9C110.1 63.1 91 44 91 20.6zM172.6 7.1c-2.8 1.7-6.4.8-8.1-2-3.5-7.4-7.6-15.3-12.5-23.4-6.5-10.9-13.1-20.6-19.5-28.9-.2-.3-1.3-2.1-.7-4.5.4-1.5 1.3-2.8 2.7-3.7 2.8-1.7 6.4-.8 8.1 2 6.2 7.8 12.7 17 19 27.5 5.2 8.7 9.5 17.1 13 24.8.2.3 1.3 2.1.7 4.5-.4 1.5-1.3 2.8-2.7 3.7z"/></g></svg>