<?xml version="1.0" encoding="utf-8"?>
<!-- Generator: Adobe Illustrator 19.1.1, SVG Export Plug-In . SVG Version: 6.00 Build 0)  -->
<svg version="1.1" id="Layer_1" xmlns="http://www.w3.org/2000/svg" xmlns:xlink="http://www.w3.org/1999/xlink" x="0px" y="0px"
	 viewBox="156 -206 512 512" style="enable-background:new 156 -206 512 512;" xml:space="preserve">
<g>
	<g>
		<path d="M206.3,33.3h-33.4c-9.2,0-16.7,7.5-16.7,16.7s7.5,16.7,16.7,16.7h33.4c9.2,0,16.7-7.5,16.7-16.7S215.5,33.3,206.3,33.3z"
			/>
	</g>
</g>
<g>
	<g>
		<path d="M651.5,33.3h-33.4c-9.2,0-16.7,7.5-16.7,16.7s7.5,16.7,16.7,16.7h33.4c9.2,0,16.7-7.5,16.7-16.7S660.7,33.3,651.5,33.3z"
			/>
	</g>
</g>
<g>
	<g>
		<path d="M412.2,239.2c-9.2,0-16.7,7.5-16.7,16.7v33.4c0,9.2,7.5,16.7,16.7,16.7s16.7-7.5,16.7-16.7v-33.4
			C428.9,246.7,421.4,239.2,412.2,239.2z"/>
	</g>
</g>
<g>
	<g>
		<path d="M412.2-206c-9.2,0-16.7,7.5-16.7,16.7v33.4c0,9.2,7.5,16.7,16.7,16.7s16.7-7.5,16.7-16.7v-33.4
			C428.9-198.5,421.4-206,412.2-206z"/>
	</g>
</g>
<g>
	<g>
		<path d="M546.3,248.9L529.6,220c-4.6-8-14.8-10.7-22.8-6.1c-8,4.6-10.7,14.8-6.1,22.8l16.7,28.9c4.6,8,14.8,10.7,22.8,6.1
			S550.9,256.9,546.3,248.9z"/>
	</g>
</g>
<g>
	<g>
		<path d="M323.7-136.7L307-165.6c-4.6-8-14.8-10.7-22.8-6.1c-8,4.6-10.7,14.8-6.1,22.8l16.7,28.9c4.6,8,14.8,10.7,22.8,6.1
			C325.6-118.5,328.3-128.7,323.7-136.7z"/>
	</g>
</g>
<g>
	<g>
		<path d="M627.8,155.2l-28.9-16.7c-8-4.6-18.2-1.9-22.8,6.1s-1.9,18.2,6.1,22.8l28.9,16.7c8,4.6,18.2,1.9,22.8-6.1
			C638.5,170,635.8,159.8,627.8,155.2z"/>
	</g>
</g>
<g>
	<g>
		<path d="M242.2-67.4l-28.9-16.7c-8-4.6-18.2-1.9-22.8,6.1s-1.9,18.2,6.1,22.8l28.9,16.7c8,4.6,18.2,1.9,22.8-6.1
			C252.9-52.6,250.2-62.8,242.2-67.4z"/>
	</g>
</g>
<g>
	<g>
		<path d="M633.9-78c-4.6-8-14.8-10.7-22.8-6.1l-28.9,16.7c-8,4.6-10.7,14.8-6.1,22.8c4.6,8,14.8,10.7,22.8,6.1l28.9-16.7
			C635.8-59.8,638.5-70,633.9-78z"/>
	</g>
</g>
<g>
	<g>
		<path d="M248.3,144.6c-4.6-8-14.8-10.7-22.8-6.1l-28.9,16.7c-8,4.6-10.7,14.8-6.1,22.8c4.6,8,14.8,10.7,22.8,6.1l28.9-16.7
			C250.2,162.8,252.9,152.6,248.3,144.6z"/>
	</g>
</g>
<g>
	<g>
		<path d="M540.2-171.7c-8-4.6-18.2-1.9-22.8,6.1l-16.7,28.9c-4.6,8-1.9,18.2,6.1,22.8c8,4.6,18.2,1.9,22.8-6.1l16.7-28.9
			C550.9-156.9,548.2-167.1,540.2-171.7z"/>
	</g>
</g>
<g>
	<g>
		<path d="M317.6,213.9c-8-4.6-18.2-1.9-22.8,6.1l-16.7,28.9c-4.6,8-1.9,18.2,6.1,22.8c8,4.6,18.2,1.9,22.8-6.1l16.7-28.9
			C328.3,228.7,325.6,218.5,317.6,213.9z"/>
	</g>
</g>
<g>
	<g>
		<path d="M412.2-105.8c-85.9,0-155.8,69.9-155.8,155.8s69.9,155.8,155.8,155.8S568,135.9,568,50S498.1-105.8,412.2-105.8z
			 M412.2,172.4c-67.5,0-122.4-54.9-122.4-122.4S344.7-72.4,412.2-72.4S534.6-17.5,534.6,50S479.7,172.4,412.2,172.4z"/>
	</g>
</g>
<g>
	<g>
		<path d="M479.6,115.9c35.7-46,27.3-112.5-18.8-148c-8.7-6.6-21.1-5.1-27.7,3.6c-6.6,8.7-5.1,21.1,3.6,27.7
			c28.8,22.3,34,63.8,11.7,92.6c-6.6,8.7-5.1,21.1,3.6,27.7C460.5,126.1,473,124.6,479.6,115.9z"/>
	</g>
</g>
<g>
	<g>
		<path d="M335.5,23.2c-14.2,15.7-12.9,40,2.8,54.2c3,2.7,7.5,2.4,10.2-0.5c2.7-3,2.4-7.5-0.5-10.2c-9.8-8.9-10.6-24-1.8-33.9
			c2.7-3,2.4-7.5-0.5-10.2C342.7,20,338.1,20.2,335.5,23.2z"/>
	</g>
</g>
</svg>
