<?xml version="1.0" encoding="utf-8"?>
<!-- Generator: Adobe Illustrator 19.1.1, SVG Export Plug-In . SVG Version: 6.00 Build 0)  -->
<svg version="1.1" id="Capa_1" xmlns="http://www.w3.org/2000/svg" xmlns:xlink="http://www.w3.org/1999/xlink" x="0px" y="0px"
	 viewBox="1 -51.7 202.7 202.7" style="enable-background:new 1 -51.7 202.7 202.7;" xml:space="preserve">
<path d="M200.9,68.1c-2.4-1.9-5.7-2.1-8.4-0.6c-12.6,7.2-25.9,10.9-39.5,10.9c-43.8,0-79.4-35.6-79.4-79.4c0-13.7,3.7-27,10.9-39.4
	c1.5-2.6,1.3-6-0.6-8.4c-1.9-2.4-5-3.4-8-2.6c-21.2,6.1-40.2,19-53.6,36.4C8.4,3.1,1,24.7,1,47.5C1,104.6,47.4,151,104.4,151
	c22.9,0,44.5-7.4,62.6-21.3c17.4-13.4,30.4-32.5,36.5-53.6C204.3,73.2,203.3,70,200.9,68.1z M104.4,136C55.7,136,16,96.3,16,47.5
	c0-32.9,18.8-62.8,47.4-77.9C60.2-20.8,58.6-11,58.6-1c0,52.1,42.4,94.4,94.4,94.4c10,0,19.8-1.6,29.3-4.9
	C167.3,117.2,137.4,136,104.4,136z"/>
<path d="M124.8-13.4l-5.8-1.2l5.8-1.2l15.7,1.2L124.8-13.4z M116.2-16.4l1.8-2.7l6.6-5.7l-5.7,6.6L116.2-16.4z M114.4-11.1
	c-1.2-2.7-0.7-2.2-3.5-3.5c2.7-1.2,2.2-0.7,3.5-3.5c1.2,2.7,0.7,2.2,3.5,3.5C115.1-13.3,115.6-13.8,114.4-11.1z M113.2-25l1.2-15.7
	l1.2,15.7l-1.2,5.8L113.2-25z M104.2-24.7l6.6,5.7l1.8,2.7l-2.7-1.8L104.2-24.7z M103.9-13.4l-15.7-1.2l15.7-1.2l5.8,1.2L103.9-13.4
	z M112.6-12.7l-1.8,2.7l-6.6,5.7l5.7-6.6L112.6-12.7z M115.5-4.1l-1.2,15.7l-1.2-15.7l1.2-5.8L115.5-4.1z M124.5-4.4L118-10
	l-1.8-2.7l2.7,1.8L124.5-4.4z"/>
<path d="M172.9,38l-9-1.8l9-1.8l24.4,1.8L172.9,38z M159.5,33.4l2.8-4.2l10.2-8.8l-8.8,10.2L159.5,33.4z M156.7,41.6
	c-1.9-4.2-1.2-3.4-5.4-5.4c4.2-1.9,3.4-1.2,5.4-5.4c1.9,4.2,1.2,3.4,5.4,5.4C157.9,38.1,158.7,37.3,156.7,41.6z M154.9,20l1.8-24.4
	l1.8,24.4l-1.8,9L154.9,20z M140.9,20.4l10.2,8.8l2.8,4.2l-4.2-2.8L140.9,20.4z M140.5,38l-24.4-1.8l24.4-1.8l9,1.8L140.5,38z
	 M153.9,39l-2.8,4.2L140.9,52l8.8-10.2L153.9,39z M158.6,52.4l-1.8,24.4l-1.8-24.4l1.8-9L158.6,52.4z M172.5,52l-10.2-8.8l-2.8-4.2
	l4.2,2.8L172.5,52z"/>
</svg>
