<?xml version="1.0" encoding="utf-8"?>
<!-- Generator: Adobe Illustrator 19.1.1, SVG Export Plug-In . SVG Version: 6.00 Build 0)  -->
<svg version="1.1" id="Layer_1" xmlns="http://www.w3.org/2000/svg" xmlns:xlink="http://www.w3.org/1999/xlink" x="0px" y="0px"
	 viewBox="156 -206 512 512" style="enable-background:new 156 -206 512 512;" xml:space="preserve">
<style type="text/css">
	.st0{stroke:#000000;stroke-width:13;stroke-miterlimit:10;}
</style>
<g>
	<g>
		<path class="st0" d="M367.3-49.8c-45.3,0-85.5,28.9-100,71.8c-1.3,3.8-4.7,6.6-8.7,7c-40.3,4.4-70.7,38.3-70.7,78.9
			c0,43.8,35.6,79.4,79.4,79.4h289.4c43.8,0,79.4-35.6,79.4-79.4c0-29.4-16.2-56.3-42.2-70.2c-3.7-2-5.9-6-5.5-10.2
			c0.3-3.1,0.5-6.3,0.5-9.5c0-58.2-47.4-105.6-105.6-105.6c-31,0-60.4,13.6-80.5,37.4c-2.5,3-6.6,4.3-10.4,3.4
			C383.8-48.7,375.4-49.8,367.3-49.8L367.3-49.8z M556.7,208.3H267.3C212,208.3,167,163.3,167,108c0-49.1,35.2-90.4,82.8-98.7
			c19-48,65.4-79.9,117.5-79.9c7.8,0,15.7,0.8,23.8,2.4c23.9-25.5,57.2-40,92.2-40c69.7,0,126.4,56.7,126.4,126.4
			c0,1.6,0,3.1-0.1,4.7C639,41.1,657,73.1,657,108C657,163.3,612,208.3,556.7,208.3z"/>
		<path class="st0" d="M367.3-49.8c-45.3,0-85.5,28.9-100,71.8c-1.3,3.8-4.7,6.6-8.7,7c-40.3,4.4-70.7,38.3-70.7,78.9
			c0,43.8,35.6,79.4,79.4,79.4h289.4c43.8,0,79.4-35.6,79.4-79.4c0-29.4-16.2-56.3-42.2-70.2c-3.7-2-5.9-6-5.5-10.2
			c0.3-3.1,0.5-6.3,0.5-9.5c0-58.2-47.4-105.6-105.6-105.6c-31,0-60.4,13.6-80.5,37.4c-2.5,3-6.6,4.3-10.4,3.4
			C383.8-48.7,375.4-49.8,367.3-49.8L367.3-49.8z M556.7,208.3H267.3C212,208.3,167,163.3,167,108c0-49.1,35.2-90.4,82.8-98.7
			c19-48,65.4-79.9,117.5-79.9c7.8,0,15.7,0.8,23.8,2.4c23.9-25.5,57.2-40,92.2-40c69.7,0,126.4,56.7,126.4,126.4
			c0,1.6,0,3.1-0.1,4.7C639,41.1,657,73.1,657,108C657,163.3,612,208.3,556.7,208.3z"/>
	</g>
</g>
<g>
	<g>
		<path class="st0" d="M366.3-50.8c-45.3,0-85.5,28.9-100,71.8c-1.3,3.8-4.7,6.6-8.7,7c-40.3,4.4-70.7,38.3-70.7,78.9
			c0,43.8,35.6,79.4,79.4,79.4h289.4c43.8,0,79.4-35.6,79.4-79.4c0-29.4-16.2-56.3-42.2-70.2c-3.7-2-5.9-6-5.5-10.2
			c0.3-3.1,0.5-6.3,0.5-9.5c0-58.2-47.4-105.6-105.6-105.6c-31,0-60.4,13.6-80.5,37.4c-2.5,3-6.6,4.3-10.4,3.4
			C382.8-49.7,374.4-50.8,366.3-50.8L366.3-50.8z M555.7,207.3H266.3C211,207.3,166,162.3,166,107c0-49.1,35.2-90.4,82.8-98.7
			c19-48,65.4-79.9,117.5-79.9c7.8,0,15.7,0.8,23.8,2.4c23.9-25.5,57.2-40,92.2-40c69.7,0,126.4,56.7,126.4,126.4
			c0,1.6,0,3.1-0.1,4.7C638,40.1,656,72.1,656,107C656,162.3,611,207.3,555.7,207.3z"/>
		<path class="st0" d="M366.3-50.8c-45.3,0-85.5,28.9-100,71.8c-1.3,3.8-4.7,6.6-8.7,7c-40.3,4.4-70.7,38.3-70.7,78.9
			c0,43.8,35.6,79.4,79.4,79.4h289.4c43.8,0,79.4-35.6,79.4-79.4c0-29.4-16.2-56.3-42.2-70.2c-3.7-2-5.9-6-5.5-10.2
			c0.3-3.1,0.5-6.3,0.5-9.5c0-58.2-47.4-105.6-105.6-105.6c-31,0-60.4,13.6-80.5,37.4c-2.5,3-6.6,4.3-10.4,3.4
			C382.8-49.7,374.4-50.8,366.3-50.8L366.3-50.8z M555.7,207.3H266.3C211,207.3,166,162.3,166,107c0-49.1,35.2-90.4,82.8-98.7
			c19-48,65.4-79.9,117.5-79.9c7.8,0,15.7,0.8,23.8,2.4c23.9-25.5,57.2-40,92.2-40c69.7,0,126.4,56.7,126.4,126.4
			c0,1.6,0,3.1-0.1,4.7C638,40.1,656,72.1,656,107C656,162.3,611,207.3,555.7,207.3z"/>
	</g>
</g>
</svg>
