<?xml version="1.0" encoding="utf-8"?>
<!-- Generator: Adobe Illustrator 19.1.1, SVG Export Plug-In . SVG Version: 6.00 Build 0)  -->
<svg version="1.1" id="Capa_1" xmlns="http://www.w3.org/2000/svg" xmlns:xlink="http://www.w3.org/1999/xlink" x="0px" y="0px"
	 viewBox="1 -51.7 202.7 202.7" style="enable-background:new 1 -51.7 202.7 202.7;" xml:space="preserve">
<style type="text/css">
	.st0{stroke:#000000;stroke-width:13;stroke-miterlimit:10;}
	.st1{fill:#FFFFFF;stroke:#000000;stroke-width:13;stroke-miterlimit:10;}
</style>
<path d="M200.9,68.1c-2.4-1.9-5.7-2.1-8.4-0.6c-12.6,7.2-25.9,10.9-39.5,10.9c-43.8,0-79.4-35.6-79.4-79.4c0-13.7,3.7-27,10.9-39.4
	c1.5-2.6,1.3-6-0.6-8.4c-1.9-2.4-5-3.4-8-2.6c-21.2,6.1-40.2,19-53.6,36.4C8.4,3.1,1,24.7,1,47.5C1,104.6,47.4,151,104.4,151
	c22.9,0,44.5-7.4,62.6-21.3c17.4-13.4,30.4-32.5,36.5-53.6C204.3,73.2,203.3,70,200.9,68.1z M104.4,136C55.7,136,16,96.3,16,47.5
	c0-32.9,18.8-62.8,47.4-77.9C60.2-20.8,58.6-11,58.6-1c0,52.1,42.4,94.4,94.4,94.4c10,0,19.8-1.6,29.3-4.9
	C167.3,117.2,137.4,136,104.4,136z"/>
<path d="M111.1-19.3l-4.9-1l4.9-1l13.2,1L111.1-19.3z M103.9-21.8l1.5-2.3l5.5-4.7l-4.7,5.5L103.9-21.8z M102.4-17.3
	c-1-2.3-0.6-1.9-2.9-2.9c2.3-1,1.9-0.6,2.9-2.9c1,2.3,0.6,1.9,2.9,2.9C103-19.2,103.4-19.6,102.4-17.3z M101.4-29l1-13.2l1,13.2
	l-1,4.9L101.4-29z M93.8-28.8l5.5,4.7l1.5,2.3l-2.3-1.5L93.8-28.8z M93.6-19.3l-13.2-1l13.2-1l4.9,1L93.6-19.3z M100.9-18.7
	l-1.5,2.3l-5.5,4.7l4.7-5.5L100.9-18.7z M103.4-11.5l-1,13.2l-1-13.2l1-4.9L103.4-11.5z M110.9-11.7l-5.5-4.7l-1.5-2.3l2.3,1.5
	L110.9-11.7z"/>
<path d="M179.5,6.5l-8-1.6l8-1.6l21.7,1.6L179.5,6.5z M167.6,2.3l2.5-3.8l9.1-7.8l-7.8,9.1L167.6,2.3z M165.1,9.6
	c-1.7-3.8-1-3.1-4.8-4.8c3.8-1.7,3.1-1,4.8-4.8c1.7,3.8,1,3.1,4.8,4.8C166.1,6.6,166.8,5.9,165.1,9.6z M163.5-9.6l1.6-21.7l1.6,21.7
	l-1.6,8L163.5-9.6z M151-9.2l9.1,7.8l2.5,3.8l-3.8-2.5L151-9.2z M150.7,6.5L129,4.8l21.7-1.6l8,1.6L150.7,6.5z M162.6,7.3l-2.5,3.8
	l-9.1,7.8l7.8-9.1L162.6,7.3z M166.7,19.3L165.1,41l-1.6-21.7l1.6-8L166.7,19.3z M179.2,18.9l-9.1-7.8l-2.5-3.8l3.8,2.5L179.2,18.9z
	"/>
<g>
	<g>
		<path class="st0" d="M84.6,64.6c-14,0-26.5,9-31,22.3c-0.4,1.2-1.5,2-2.7,2.2C38.5,90.4,29,100.9,29,113.5
			c0,13.6,11,24.6,24.6,24.6h89.7c13.6,0,24.6-11,24.6-24.6c0-9.1-5-17.4-13.1-21.8c-1.1-0.6-1.8-1.9-1.7-3.2c0.1-1,0.2-2,0.2-2.9
			c0-18-14.7-32.7-32.7-32.7c-9.6,0-18.7,4.2-24.9,11.6c-0.8,0.9-2,1.3-3.2,1.1C89.7,65,87.1,64.6,84.6,64.6L84.6,64.6z
			 M143.3,144.6H53.6c-17.1,0-31.1-13.9-31.1-31.1c0-15.2,10.9-28,25.7-30.6c5.9-14.9,20.3-24.8,36.4-24.8c2.4,0,4.9,0.2,7.4,0.7
			c7.4-7.9,17.7-12.4,28.6-12.4c21.6,0,39.2,17.6,39.2,39.2c0,0.5,0,1,0,1.5c9.1,5.6,14.7,15.6,14.7,26.4
			C174.4,130.7,160.5,144.6,143.3,144.6z"/>
		<path class="st1" d="M95.6,64.5 M153.3,85.6 M143.3,144.6H53.6c-17.1,0-31.1-13.9-31.1-31.1c0-15.2,10.9-28,25.7-30.6
			c5.9-14.9,20.3-24.8,36.4-24.8c2.4,0,4.9,0.2,7.4,0.7c7.4-7.9,17.7-12.4,28.6-12.4c21.6,0,39.2,17.6,39.2,39.2c0,0.5,0,1,0,1.5
			c9.1,5.6,14.7,15.6,14.7,26.4C174.4,130.7,160.5,144.6,143.3,144.6z"/>
	</g>
</g>
</svg>
