<?xml version="1.0" encoding="utf-8"?>
<!-- Generator: Adobe Illustrator 19.1.1, SVG Export Plug-In . SVG Version: 6.00 Build 0)  -->
<svg version="1.1" id="Capa_1" xmlns="http://www.w3.org/2000/svg" xmlns:xlink="http://www.w3.org/1999/xlink" x="0px" y="0px"
	 viewBox="-61 12 77 77" style="enable-background:new -61 12 77 77;" xml:space="preserve">
<g>
	<path d="M-22.5,89c-15.5,0-28.2-12.6-28.2-28.2c0-14.5,23.2-44.3,25.8-47.7c0.6-0.7,1.4-1.1,2.4-1.1s1.8,0.4,2.4,1.1
		c2.6,3.3,25.8,33.1,25.8,47.7C5.7,76.4-7,89-22.5,89z M-22.5,19.9c-7.8,10.4-22.2,31.4-22.2,40.9c0,12.2,10,22.2,22.2,22.2
		s22.2-9.9,22.2-22.2C-0.3,51.3-14.7,30.3-22.5,19.9z"/>
	<path d="M-39.3,61.7c0-1.7,1.3-3,3-3s3,1.3,3,3c0,5.6,4.6,10.2,10.2,10.2c1.7,0,3,1.3,3,3c0,1.7-1.3,3-3,3
		C-32.1,77.9-39.3,70.6-39.3,61.7z"/>
	<path d="M-8.3,56.6L-8.3,56.6c-1.1,0.6-2.4,0.3-3.1-0.7c-1.3-2.8-2.9-5.8-4.7-8.9c-2.5-4.2-5-7.8-7.4-11c-0.1-0.1-0.5-0.8-0.3-1.7
		c0.1-0.6,0.5-1.1,1-1.4l0,0c1.1-0.6,2.4-0.3,3.1,0.7c2.3,3,4.8,6.5,7.2,10.5c2,3.3,3.6,6.5,5,9.4c0.1,0.1,0.5,0.8,0.3,1.7
		C-7.4,55.7-7.8,56.2-8.3,56.6z"/>
	<path d="M24.3,46.1"/>
</g>
</svg>
