<?xml version="1.0" encoding="utf-8"?>
<!-- Generator: Adobe Illustrator 19.1.1, SVG Export Plug-In . SVG Version: 6.00 Build 0)  -->
<svg version="1.1" id="Capa_1" xmlns="http://www.w3.org/2000/svg" xmlns:xlink="http://www.w3.org/1999/xlink" x="0px" y="0px"
	 viewBox="60 -110 320 320" style="enable-background:new 60 -110 320 320;" xml:space="preserve">
<g>
	<polygon points="186.6,128 193,134.3 212.1,115.2 222.4,115.2 203.2,134.4 209.5,140.8 235.1,115.2 270.2,115.2 236.2,149.2 
		205.9,149.2 205.9,158.1 227.2,158.1 209.3,176.1 215.6,182.4 233.5,164.5 233.5,185.8 242.5,185.8 242.5,155.5 276.5,121.5 
		276.5,156.6 250.9,182.2 257.2,188.5 276.5,169.2 276.5,179.6 257.4,198.7 263.7,205 276.5,192.2 276.5,209 285.5,209 285.5,192.2 
		298.3,205 304.6,198.7 285.5,179.6 285.5,169.2 304.7,188.5 311.1,182.2 285.5,156.6 285.5,121.5 319.5,155.5 319.5,185.8 
		328.4,185.8 328.4,164.5 346.4,182.4 352.7,176.1 334.8,158.1 356.1,158.1 356.1,149.2 325.8,149.2 291.8,115.2 326.9,115.2 
		352.5,140.8 358.8,134.4 339.5,115.2 349.9,115.2 369,134.3 375.3,128 362.5,115.2 379.3,115.2 379.3,106.2 362.5,106.2 
		375.3,93.4 369,87.1 349.9,106.2 339.5,106.2 358.8,87 352.5,80.6 326.9,106.2 291.8,106.2 325.8,72.2 356.1,72.2 356.1,63.3 
		334.8,63.3 349.2,48.9 342.8,42.5 328.4,56.9 328.4,35.6 319.5,35.6 319.5,65.9 285.5,99.9 285.5,64.8 311.1,39.2 304.7,32.9 
		285.5,52.2 285.5,41.8 304.6,22.7 298.3,16.4 285.5,29.2 285.5,12.4 276.5,12.4 276.5,29.2 263.7,16.4 257.4,22.7 276.5,41.8 
		276.5,52.2 257.2,32.9 250.9,39.2 276.5,64.8 276.5,99.9 242.5,65.9 242.5,35.6 233.5,35.6 233.5,56.9 219.1,42.5 212.8,48.9 
		227.2,63.3 205.9,63.3 205.9,72.2 236.2,72.2 270.2,106.2 235.1,106.2 209.5,80.6 203.2,87 222.4,106.2 212.1,106.2 193,87.1 
		186.6,93.4 199.5,106.2 182.7,106.2 182.7,115.2 199.5,115.2 	"/>
	<g>
		<rect x="239.5" y="127.1" width="24" height="8.2"/>
		<rect x="255.3" y="127.1" width="8.2" height="24"/>
	</g>
	<g>
		<rect x="255.3" y="70.2" width="8.2" height="24"/>
		<rect x="239.5" y="86" width="24" height="8.2"/>
	</g>
	<g>
		<rect x="297.1" y="127.7" width="8.2" height="24"/>
		<rect x="297.1" y="127.7" width="24" height="8.2"/>
	</g>
	<g>
		<rect x="297.1" y="87.3" width="24" height="8.2"/>
		<rect x="297.1" y="71.5" width="8.2" height="24"/>
	</g>
</g>
<g>
	<path d="M135.2,92.3c-40.8,0-74.1-33.2-74.1-74.1c0-38.2,60.9-116.5,67.9-125.3c1.5-1.9,3.8-3,6.2-3s4.7,1.1,6.2,3
		c7,8.8,67.9,87.1,67.9,125.3C209.3,59.1,176.1,92.3,135.2,92.3z M135.2-89.2C114.6-61.8,76.9-6.7,76.9,18.3
		c0,32.2,26.2,58.3,58.3,58.3s58.3-26.2,58.3-58.3C193.5-6.7,155.8-61.8,135.2-89.2z"/>
	<path d="M91,20.6c0-4.4,3.5-7.9,7.9-7.9s7.9,3.5,7.9,7.9c0,14.8,12,26.8,26.8,26.8c4.4,0,7.9,3.5,7.9,7.9c0,4.4-3.5,7.9-7.9,7.9
		C110.1,63.1,91,44,91,20.6z"/>
	<path d="M172.6,7.1L172.6,7.1c-2.8,1.7-6.4,0.8-8.1-2c-3.5-7.4-7.6-15.3-12.5-23.4c-6.5-10.9-13.1-20.6-19.5-28.9
		c-0.2-0.3-1.3-2.1-0.7-4.5c0.4-1.5,1.3-2.8,2.7-3.7v0c2.8-1.7,6.4-0.8,8.1,2c6.2,7.8,12.7,17,19,27.5c5.2,8.7,9.5,17.1,13,24.8
		c0.2,0.3,1.3,2.1,0.7,4.5C174.9,4.9,174,6.2,172.6,7.1z"/>
	<path d="M258.1-20.3"/>
</g>
</svg>
