<?xml version="1.0" encoding="utf-8"?>
<!-- Generator: Adobe Illustrator 19.1.1, SVG Export Plug-In . SVG Version: 6.00 Build 0)  -->
<svg version="1.1" id="Capa_1" xmlns="http://www.w3.org/2000/svg" xmlns:xlink="http://www.w3.org/1999/xlink" x="0px" y="0px"
	 viewBox="60 -110 320 320" style="enable-background:new 60 -110 320 320;" xml:space="preserve">
<polygon points="66.4,78.2 76.7,88.5 107.9,57.3 124.7,57.3 93.3,88.6 103.6,98.9 145.3,57.3 202.4,57.3 147,112.7 97.8,112.7 
	97.8,127.2 132.5,127.2 103.3,156.4 113.6,166.7 142.8,137.5 142.8,172.2 157.3,172.2 157.3,123 212.7,67.6 212.7,124.7 
	171.1,166.4 181.4,176.7 212.7,145.3 212.7,162.1 181.5,193.3 191.8,203.6 212.7,182.7 212.7,210 227.3,210 227.3,182.7 
	248.2,203.6 258.5,193.3 227.3,162.1 227.3,145.3 258.6,176.7 268.9,166.4 227.3,124.7 227.3,67.6 282.7,123 282.7,172.2 
	297.2,172.2 297.2,137.5 326.4,166.7 336.7,156.4 307.5,127.2 342.2,127.2 342.2,112.7 293,112.7 237.6,57.3 294.7,57.3 336.4,98.9 
	346.7,88.6 315.3,57.3 332.1,57.3 363.3,88.5 373.6,78.2 352.7,57.3 380,57.3 380,42.7 352.7,42.7 373.6,21.8 363.3,11.5 
	332.1,42.7 315.3,42.7 346.7,11.3 336.4,1.1 294.7,42.7 237.6,42.7 293,-12.7 342.2,-12.7 342.2,-27.2 307.5,-27.2 331,-50.7 
	320.7,-61 297.2,-37.5 297.2,-72.2 282.7,-72.2 282.7,-23 227.3,32.4 227.3,-24.7 268.9,-66.4 258.6,-76.7 227.3,-45.3 227.3,-62.1 
	258.5,-93.3 248.2,-103.6 227.3,-82.7 227.3,-110 212.7,-110 212.7,-82.7 191.8,-103.6 181.5,-93.3 212.7,-62.1 212.7,-45.3 
	181.4,-76.7 171.1,-66.4 212.7,-24.7 212.7,32.4 157.3,-23 157.3,-72.2 142.8,-72.2 142.8,-37.5 119.3,-61 109,-50.7 132.5,-27.2 
	97.8,-27.2 97.8,-12.7 147,-12.7 202.4,42.7 145.3,42.7 103.6,1.1 93.3,11.3 124.7,42.7 107.9,42.7 76.7,11.5 66.4,21.8 87.3,42.7 
	60,42.7 60,57.3 87.3,57.3 "/>
<g>
	<rect x="152.5" y="76.6" width="39" height="13.3"/>
	<rect x="178.2" y="76.6" width="13.3" height="39"/>
</g>
<g>
	<rect x="178.2" y="-15.9" width="13.3" height="39"/>
	<rect x="152.5" y="9.9" width="39" height="13.3"/>
</g>
<g>
	<rect x="246.1" y="77.6" width="13.3" height="39"/>
	<rect x="246.1" y="77.6" width="39" height="13.3"/>
</g>
<g>
	<rect x="246.1" y="11.9" width="39" height="13.3"/>
	<rect x="246.1" y="-13.9" width="13.3" height="39"/>
</g>
</svg>
